<svg width="169" height="69" viewBox="0 0 169 69" fill="none" xmlns="http://www.w3.org/2000/svg">
<path d="M4.03472 58.8706C4.51858 58.8706 4.94141 58.9643 5.30322 59.1518C5.66938 59.3348 5.95054 59.6007 6.1467 59.9495C6.34722 60.2938 6.44747 60.697 6.44747 61.1591C6.44747 61.6212 6.34722 62.0222 6.1467 62.3622C5.95054 62.7022 5.66938 62.9638 5.30322 63.1468C4.94141 63.3256 4.51858 63.4149 4.03472 63.4149H2.55046V58.8706H4.03472ZM4.03472 62.8068C4.56653 62.8068 4.9741 62.663 5.25744 62.3753C5.54079 62.0876 5.68246 61.6822 5.68246 61.1591C5.68246 60.6317 5.54079 60.2197 5.25744 59.9233C4.9741 59.6269 4.56653 59.4787 4.03472 59.4787H3.29586V62.8068H4.03472ZM6.93777 61.5972C6.93777 61.2354 7.01187 60.915 7.16008 60.636C7.31265 60.357 7.51753 60.1413 7.77471 59.9887C8.03626 59.8318 8.32396 59.7533 8.63781 59.7533C8.92115 59.7533 9.16744 59.81 9.37667 59.9233C9.59027 60.0323 9.76027 60.1696 9.88669 60.3352V59.8122H10.6386V63.4149H9.88669V62.8788C9.76027 63.0488 9.58809 63.1904 9.37014 63.3038C9.15218 63.4171 8.90371 63.4738 8.62473 63.4738C8.31524 63.4738 8.0319 63.3953 7.77471 63.2384C7.51753 63.0771 7.31265 62.8548 7.16008 62.5714C7.01187 62.2838 6.93777 61.959 6.93777 61.5972ZM9.88669 61.6103C9.88669 61.3618 9.83438 61.146 9.72976 60.9629C9.6295 60.7799 9.49655 60.6404 9.3309 60.5445C9.16526 60.4486 8.98654 60.4006 8.79474 60.4006C8.60294 60.4006 8.42422 60.4486 8.25857 60.5445C8.09292 60.636 7.95779 60.7733 7.85318 60.9564C7.75292 61.1351 7.70279 61.3487 7.70279 61.5972C7.70279 61.8457 7.75292 62.0636 7.85318 62.2511C7.95779 62.4385 8.09292 62.5823 8.25857 62.6826C8.42857 62.7785 8.6073 62.8265 8.79474 62.8265C8.98654 62.8265 9.16526 62.7785 9.3309 62.6826C9.49655 62.5867 9.6295 62.4472 9.72976 62.2641C9.83438 62.0767 9.88669 61.8587 9.88669 61.6103ZM15.9789 59.7533C16.2623 59.7533 16.5151 59.8122 16.7374 59.9298C16.9641 60.0475 17.1406 60.2219 17.2671 60.4529C17.3978 60.684 17.4632 60.9629 17.4632 61.2899V63.4149H16.7243V61.401C16.7243 61.0785 16.6437 60.8322 16.4824 60.6622C16.3211 60.4878 16.101 60.4006 15.822 60.4006C15.543 60.4006 15.3207 60.4878 15.1551 60.6622C14.9938 60.8322 14.9132 61.0785 14.9132 61.401V63.4149H14.1743V61.401C14.1743 61.0785 14.0936 60.8322 13.9324 60.6622C13.7711 60.4878 13.5509 60.4006 13.272 60.4006C12.993 60.4006 12.7707 60.4878 12.605 60.6622C12.4437 60.8322 12.3631 61.0785 12.3631 61.401V63.4149H11.6177V59.8122H12.3631V60.2241C12.4851 60.0759 12.6399 59.9604 12.8273 59.8775C13.0148 59.7947 13.2153 59.7533 13.4289 59.7533C13.7166 59.7533 13.9738 59.8143 14.2004 59.9364C14.4271 60.0584 14.6015 60.235 14.7235 60.466C14.8325 60.2481 15.0025 60.0759 15.2335 59.9495C15.4646 59.8187 15.713 59.7533 15.9789 59.7533ZM18.1633 61.5972C18.1633 61.2354 18.2374 60.915 18.3856 60.636C18.5381 60.357 18.743 60.1413 19.0002 59.9887C19.2617 59.8318 19.5494 59.7533 19.8633 59.7533C20.1466 59.7533 20.3929 59.81 20.6022 59.9233C20.8158 60.0323 20.9858 60.1696 21.1122 60.3352V59.8122H21.8641V63.4149H21.1122V62.8788C20.9858 63.0488 20.8136 63.1904 20.5956 63.3038C20.3777 63.4171 20.1292 63.4738 19.8502 63.4738C19.5407 63.4738 19.2574 63.3953 19.0002 63.2384C18.743 63.0771 18.5381 62.8548 18.3856 62.5714C18.2374 62.2838 18.1633 61.959 18.1633 61.5972ZM21.1122 61.6103C21.1122 61.3618 21.0599 61.146 20.9552 60.9629C20.855 60.7799 20.722 60.6404 20.5564 60.5445C20.3907 60.4486 20.212 60.4006 20.0202 60.4006C19.8284 60.4006 19.6497 60.4486 19.4841 60.5445C19.3184 60.636 19.1833 60.7733 19.0787 60.9564C18.9784 61.1351 18.9283 61.3487 18.9283 61.5972C18.9283 61.8457 18.9784 62.0636 19.0787 62.2511C19.1833 62.4385 19.3184 62.5823 19.4841 62.6826C19.6541 62.7785 19.8328 62.8265 20.0202 62.8265C20.212 62.8265 20.3907 62.7785 20.5564 62.6826C20.722 62.5867 20.855 62.4472 20.9552 62.2641C21.0599 62.0767 21.1122 61.8587 21.1122 61.6103ZM24.2947 59.7533C24.5737 59.7533 24.82 59.81 25.0336 59.9233C25.2516 60.0323 25.4216 60.1696 25.5436 60.3352V59.8122H26.2956V63.4738C26.2956 63.8051 26.2258 64.0993 26.0863 64.3565C25.9468 64.618 25.7441 64.8229 25.4782 64.9711C25.2167 65.1193 24.9028 65.1934 24.5367 65.1934C24.0485 65.1934 23.6431 65.0779 23.3205 64.8469C22.9979 64.6202 22.8148 64.3107 22.7712 63.9184H23.5101C23.5668 64.1058 23.6867 64.2562 23.8697 64.3696C24.0572 64.4873 24.2795 64.5461 24.5367 64.5461C24.8375 64.5461 25.0794 64.4546 25.2625 64.2715C25.4499 64.0884 25.5436 63.8225 25.5436 63.4738V62.8722C25.4172 63.0422 25.245 63.1861 25.0271 63.3038C24.8135 63.4171 24.5694 63.4738 24.2947 63.4738C23.9809 63.4738 23.6932 63.3953 23.4316 63.2384C23.1745 63.0771 22.9696 62.8548 22.817 62.5714C22.6688 62.2838 22.5947 61.959 22.5947 61.5972C22.5947 61.2354 22.6688 60.915 22.817 60.636C22.9696 60.357 23.1745 60.1413 23.4316 59.9887C23.6932 59.8318 23.9809 59.7533 24.2947 59.7533ZM25.5436 61.6103C25.5436 61.3618 25.4913 61.146 25.3867 60.9629C25.2864 60.7799 25.1535 60.6404 24.9878 60.5445C24.8222 60.4486 24.6435 60.4006 24.4517 60.4006C24.2599 60.4006 24.0811 60.4486 23.9155 60.5445C23.7499 60.636 23.6147 60.7733 23.5101 60.9564C23.4099 61.1351 23.3597 61.3487 23.3597 61.5972C23.3597 61.8457 23.4099 62.0636 23.5101 62.2511C23.6147 62.4385 23.7499 62.5823 23.9155 62.6826C24.0855 62.7785 24.2642 62.8265 24.4517 62.8265C24.6435 62.8265 24.8222 62.7785 24.9878 62.6826C25.1535 62.5867 25.2864 62.4472 25.3867 62.2641C25.4913 62.0767 25.5436 61.8587 25.5436 61.6103ZM30.5766 61.5253C30.5766 61.6604 30.5679 61.7825 30.5505 61.8914H27.7977C27.8195 62.1791 27.9263 62.4102 28.1181 62.5845C28.3099 62.7589 28.5453 62.8461 28.8243 62.8461C29.2253 62.8461 29.5086 62.6782 29.6743 62.3426H30.4785C30.3696 62.6739 30.1712 62.9463 29.8835 63.1599C29.6002 63.3692 29.2471 63.4738 28.8243 63.4738C28.4799 63.4738 28.1704 63.3975 27.8958 63.2449C27.6255 63.088 27.4119 62.87 27.255 62.5911C27.1024 62.3077 27.0262 61.9808 27.0262 61.6103C27.0262 61.2398 27.1003 60.915 27.2485 60.636C27.401 60.3527 27.6124 60.1347 27.8827 59.9822C28.1573 59.8296 28.4712 59.7533 28.8243 59.7533C29.1643 59.7533 29.4672 59.8274 29.7331 59.9756C29.999 60.1238 30.2061 60.3331 30.3543 60.6033C30.5025 60.8692 30.5766 61.1765 30.5766 61.5253ZM29.7985 61.2899C29.7942 61.0153 29.6961 60.7951 29.5043 60.6295C29.3125 60.4638 29.0749 60.381 28.7916 60.381C28.5344 60.381 28.3143 60.4638 28.1312 60.6295C27.9481 60.7908 27.8391 61.0109 27.8042 61.2899H29.7985ZM33.7541 60.3352C33.8631 60.1522 34.0069 60.0105 34.1856 59.9102C34.3687 59.8056 34.5845 59.7533 34.833 59.7533V60.5249H34.6433C34.3513 60.5249 34.129 60.599 33.9764 60.7472C33.8282 60.8954 33.7541 61.1526 33.7541 61.5187V63.4149H33.0087V59.8122H33.7541V60.3352ZM37.0809 63.4738C36.7409 63.4738 36.4335 63.3975 36.1589 63.2449C35.8843 63.088 35.6685 62.87 35.5116 62.5911C35.3547 62.3077 35.2762 61.9808 35.2762 61.6103C35.2762 61.2441 35.3569 60.9194 35.5181 60.636C35.6794 60.3527 35.8996 60.1347 36.1785 59.9822C36.4575 59.8296 36.7692 59.7533 37.1136 59.7533C37.4579 59.7533 37.7696 59.8296 38.0486 59.9822C38.3276 60.1347 38.5477 60.3527 38.709 60.636C38.8703 60.9194 38.9509 61.2441 38.9509 61.6103C38.9509 61.9764 38.8681 62.3012 38.7024 62.5845C38.5368 62.8679 38.3101 63.088 38.0224 63.2449C37.7391 63.3975 37.4252 63.4738 37.0809 63.4738ZM37.0809 62.8265C37.2727 62.8265 37.4514 62.7807 37.617 62.6891C37.787 62.5976 37.9244 62.4603 38.029 62.2772C38.1336 62.0941 38.1859 61.8718 38.1859 61.6103C38.1859 61.3487 38.1358 61.1286 38.0355 60.9499C37.9352 60.7668 37.8023 60.6295 37.6367 60.5379C37.471 60.4464 37.2923 60.4006 37.1005 60.4006C36.9087 60.4006 36.73 60.4464 36.5643 60.5379C36.403 60.6295 36.2744 60.7668 36.1785 60.9499C36.0826 61.1286 36.0347 61.3487 36.0347 61.6103C36.0347 61.9982 36.1328 62.299 36.3289 62.5126C36.5294 62.7218 36.7801 62.8265 37.0809 62.8265ZM39.4393 61.5972C39.4393 61.2354 39.5134 60.915 39.6616 60.636C39.8142 60.357 40.0191 60.1413 40.2763 59.9887C40.5378 59.8318 40.8255 59.7533 41.1394 59.7533C41.4227 59.7533 41.669 59.81 41.8782 59.9233C42.0918 60.0323 42.2618 60.1696 42.3882 60.3352V59.8122H43.1402V63.4149H42.3882V62.8788C42.2618 63.0488 42.0896 63.1904 41.8717 63.3038C41.6537 63.4171 41.4053 63.4738 41.1263 63.4738C40.8168 63.4738 40.5334 63.3953 40.2763 63.2384C40.0191 63.0771 39.8142 62.8548 39.6616 62.5714C39.5134 62.2838 39.4393 61.959 39.4393 61.5972ZM42.3882 61.6103C42.3882 61.3618 42.3359 61.146 42.2313 60.9629C42.131 60.7799 41.9981 60.6404 41.8325 60.5445C41.6668 60.4486 41.4881 60.4006 41.2963 60.4006C41.1045 60.4006 40.9258 60.4486 40.7601 60.5445C40.5945 60.636 40.4593 60.7733 40.3547 60.9564C40.2545 61.1351 40.2043 61.3487 40.2043 61.5972C40.2043 61.8457 40.2545 62.0636 40.3547 62.2511C40.4593 62.4385 40.5945 62.5823 40.7601 62.6826C40.9301 62.7785 41.1088 62.8265 41.2963 62.8265C41.4881 62.8265 41.6668 62.7785 41.8325 62.6826C41.9981 62.5867 42.131 62.4472 42.2313 62.2641C42.3359 62.0767 42.3882 61.8587 42.3882 61.6103ZM43.8708 61.5972C43.8708 61.2354 43.9449 60.915 44.0931 60.636C44.2456 60.357 44.4505 60.1413 44.7077 59.9887C44.9693 59.8318 45.2591 59.7533 45.5773 59.7533C45.8127 59.7533 46.0438 59.8056 46.2704 59.9102C46.5015 60.0105 46.6846 60.1456 46.8197 60.3156V58.5764H47.5716V63.4149H46.8197V62.8722C46.6976 63.0466 46.5276 63.1904 46.3097 63.3038C46.0961 63.4171 45.8498 63.4738 45.5708 63.4738C45.257 63.4738 44.9693 63.3953 44.7077 63.2384C44.4505 63.0771 44.2456 62.8548 44.0931 62.5714C43.9449 62.2838 43.8708 61.959 43.8708 61.5972ZM46.8197 61.6103C46.8197 61.3618 46.7674 61.146 46.6628 60.9629C46.5625 60.7799 46.4295 60.6404 46.2639 60.5445C46.0983 60.4486 45.9195 60.4006 45.7277 60.4006C45.5359 60.4006 45.3572 60.4486 45.1916 60.5445C45.0259 60.636 44.8908 60.7733 44.7862 60.9564C44.6859 61.1351 44.6358 61.3487 44.6358 61.5972C44.6358 61.8457 44.6859 62.0636 44.7862 62.2511C44.8908 62.4385 45.0259 62.5823 45.1916 62.6826C45.3616 62.7785 45.5403 62.8265 45.7277 62.8265C45.9195 62.8265 46.0983 62.7785 46.2639 62.6826C46.4295 62.5867 46.5625 62.4472 46.6628 62.2641C46.7674 62.0767 46.8197 61.8587 46.8197 61.6103ZM54.8197 59.7271C55.273 59.7271 55.6327 59.8645 55.8986 60.1391C56.1688 60.4137 56.304 60.7951 56.304 61.2833V63.4149H55.1924V61.4337C55.1924 61.1983 55.1292 61.0174 55.0028 60.891C54.8807 60.7603 54.7107 60.6949 54.4928 60.6949C54.2748 60.6949 54.1026 60.7603 53.9762 60.891C53.8542 61.0174 53.7931 61.1983 53.7931 61.4337V63.4149H52.6816V61.4337C52.6816 61.1983 52.6184 61.0174 52.4919 60.891C52.3699 60.7603 52.1999 60.6949 51.9819 60.6949C51.764 60.6949 51.5918 60.7603 51.4654 60.891C51.3433 61.0174 51.2823 61.1983 51.2823 61.4337V63.4149H50.1642V59.7664H51.2823V60.2241C51.3956 60.0715 51.5438 59.9516 51.7269 59.8645C51.91 59.7729 52.1171 59.7271 52.3481 59.7271C52.6227 59.7271 52.8668 59.786 53.0804 59.9037C53.2984 60.0214 53.4684 60.1892 53.5904 60.4072C53.7168 60.2066 53.889 60.0432 54.107 59.9168C54.3249 59.7904 54.5625 59.7271 54.8197 59.7271ZM58.7467 63.4672C58.3893 63.4672 58.0667 63.391 57.779 63.2384C57.4957 63.0858 57.2712 62.8679 57.1055 62.5845C56.9443 62.3012 56.8636 61.9699 56.8636 61.5907C56.8636 61.2158 56.9464 60.8867 57.1121 60.6033C57.2777 60.3156 57.5044 60.0955 57.7921 59.9429C58.0798 59.7904 58.4024 59.7141 58.7598 59.7141C59.1173 59.7141 59.4398 59.7904 59.7275 59.9429C60.0152 60.0955 60.2419 60.3156 60.4076 60.6033C60.5732 60.8867 60.656 61.2158 60.656 61.5907C60.656 61.9655 60.571 62.2968 60.401 62.5845C60.2354 62.8679 60.0065 63.0858 59.7145 63.2384C59.4268 63.391 59.1042 63.4672 58.7467 63.4672ZM58.7467 62.4995C58.9603 62.4995 59.1412 62.4211 59.2894 62.2641C59.442 62.1072 59.5183 61.8827 59.5183 61.5907C59.5183 61.2986 59.4442 61.0741 59.296 60.9172C59.1521 60.7603 58.9734 60.6818 58.7598 60.6818C58.5419 60.6818 58.361 60.7603 58.2171 60.9172C58.0733 61.0697 58.0013 61.2942 58.0013 61.5907C58.0013 61.8827 58.0711 62.1072 58.2106 62.2641C58.3544 62.4211 58.5331 62.4995 58.7467 62.4995ZM63.4723 59.7271C63.8995 59.7271 64.2395 59.8666 64.4924 60.1456C64.7495 60.4202 64.8781 60.7995 64.8781 61.2833V63.4149H63.7666V61.4337C63.7666 61.1896 63.7034 61 63.5769 60.8649C63.4505 60.7297 63.2805 60.6622 63.0669 60.6622C62.8533 60.6622 62.6833 60.7297 62.5569 60.8649C62.4305 61 62.3673 61.1896 62.3673 61.4337V63.4149H61.2492V59.7664H62.3673V60.2502C62.4806 60.089 62.6332 59.9625 62.825 59.871C63.0168 59.7751 63.2326 59.7271 63.4723 59.7271ZM66.2174 59.3871C66.0213 59.3871 65.86 59.3305 65.7336 59.2171C65.6115 59.0994 65.5505 58.9556 65.5505 58.7856C65.5505 58.6112 65.6115 58.4674 65.7336 58.354C65.86 58.2363 66.0213 58.1775 66.2174 58.1775C66.4092 58.1775 66.5662 58.2363 66.6882 58.354C66.8146 58.4674 66.8778 58.6112 66.8778 58.7856C66.8778 58.9556 66.8146 59.0994 66.6882 59.2171C66.5662 59.3305 66.4092 59.3871 66.2174 59.3871ZM66.7732 59.7664V63.4149H65.6551V59.7664H66.7732ZM69.617 62.4668V63.4149H69.0481C68.6427 63.4149 68.3267 63.3169 68.1 63.1207C67.8734 62.9202 67.76 62.5954 67.76 62.1464V60.6949H67.3154V59.7664H67.76V58.8771H68.8781V59.7664H69.6105V60.6949H68.8781V62.1595C68.8781 62.2685 68.9043 62.347 68.9566 62.3949C69.0089 62.4429 69.0961 62.4668 69.2181 62.4668H69.617ZM71.9006 63.4672C71.5432 63.4672 71.2206 63.391 70.9329 63.2384C70.6496 63.0858 70.4251 62.8679 70.2594 62.5845C70.0981 62.3012 70.0175 61.9699 70.0175 61.5907C70.0175 61.2158 70.1003 60.8867 70.266 60.6033C70.4316 60.3156 70.6583 60.0955 70.946 59.9429C71.2337 59.7904 71.5562 59.7141 71.9137 59.7141C72.2711 59.7141 72.5937 59.7904 72.8814 59.9429C73.1691 60.0955 73.3958 60.3156 73.5614 60.6033C73.7271 60.8867 73.8099 61.2158 73.8099 61.5907C73.8099 61.9655 73.7249 62.2968 73.5549 62.5845C73.3892 62.8679 73.1604 63.0858 72.8683 63.2384C72.5806 63.391 72.2581 63.4672 71.9006 63.4672ZM71.9006 62.4995C72.1142 62.4995 72.2951 62.4211 72.4433 62.2641C72.5959 62.1072 72.6722 61.8827 72.6722 61.5907C72.6722 61.2986 72.5981 61.0741 72.4499 60.9172C72.306 60.7603 72.1273 60.6818 71.9137 60.6818C71.6957 60.6818 71.5148 60.7603 71.371 60.9172C71.2271 61.0697 71.1552 61.2942 71.1552 61.5907C71.1552 61.8827 71.225 62.1072 71.3644 62.2641C71.5083 62.4211 71.687 62.4995 71.9006 62.4995ZM75.5212 60.3745C75.6519 60.174 75.8154 60.017 76.0116 59.9037C76.2077 59.786 76.4257 59.7271 76.6654 59.7271V60.9106H76.3581C76.0791 60.9106 75.8699 60.9717 75.7304 61.0937C75.5909 61.2114 75.5212 61.4207 75.5212 61.7214V63.4149H74.4031V59.7664H75.5212V60.3745ZM77.7622 59.3871C77.566 59.3871 77.4047 59.3305 77.2783 59.2171C77.1563 59.0994 77.0952 58.9556 77.0952 58.7856C77.0952 58.6112 77.1563 58.4674 77.2783 58.354C77.4047 58.2363 77.566 58.1775 77.7622 58.1775C77.954 58.1775 78.1109 58.2363 78.233 58.354C78.3594 58.4674 78.4226 58.6112 78.4226 58.7856C78.4226 58.9556 78.3594 59.0994 78.233 59.2171C78.1109 59.3305 77.954 59.3871 77.7622 59.3871ZM78.318 59.7664V63.4149H77.1999V59.7664H78.318ZM81.3514 59.7271C81.7786 59.7271 82.1186 59.8666 82.3714 60.1456C82.6286 60.4202 82.7572 60.7995 82.7572 61.2833V63.4149H81.6456V61.4337C81.6456 61.1896 81.5824 61 81.456 60.8649C81.3296 60.7297 81.1596 60.6622 80.946 60.6622C80.7324 60.6622 80.5624 60.7297 80.436 60.8649C80.3096 61 80.2463 61.1896 80.2463 61.4337V63.4149H79.1282V59.7664H80.2463V60.2502C80.3597 60.089 80.5122 59.9625 80.704 59.871C80.8958 59.7751 81.1116 59.7271 81.3514 59.7271ZM84.9203 59.7141C85.1775 59.7141 85.402 59.7664 85.5938 59.871C85.79 59.9756 85.9404 60.1129 86.045 60.2829V59.7664H87.1631V63.4084C87.1631 63.744 87.0955 64.047 86.9604 64.3173C86.8296 64.5919 86.6269 64.8098 86.3523 64.9711C86.082 65.1324 85.7442 65.2131 85.3388 65.2131C84.7983 65.2131 84.3602 65.0845 84.0245 64.8273C83.6889 64.5744 83.4971 64.2301 83.4491 63.7942H84.5542C84.589 63.9337 84.6719 64.0426 84.8026 64.1211C84.9334 64.2039 85.0947 64.2453 85.2865 64.2453C85.5175 64.2453 85.7006 64.1778 85.8357 64.0426C85.9752 63.9119 86.045 63.7005 86.045 63.4084V62.8918C85.936 63.0618 85.7856 63.2013 85.5938 63.3103C85.402 63.4149 85.1775 63.4672 84.9203 63.4672C84.6196 63.4672 84.3471 63.391 84.103 63.2384C83.8589 63.0815 83.6649 62.8613 83.5211 62.578C83.3816 62.2903 83.3118 61.959 83.3118 61.5841C83.3118 61.2092 83.3816 60.8801 83.5211 60.5968C83.6649 60.3134 83.8589 60.0955 84.103 59.9429C84.3471 59.7904 84.6196 59.7141 84.9203 59.7141ZM86.045 61.5907C86.045 61.3117 85.9665 61.0915 85.8096 60.9303C85.657 60.769 85.4696 60.6883 85.2473 60.6883C85.025 60.6883 84.8353 60.769 84.6784 60.9303C84.5258 61.0872 84.4496 61.3051 84.4496 61.5841C84.4496 61.8631 84.5258 62.0854 84.6784 62.2511C84.8353 62.4123 85.025 62.493 85.2473 62.493C85.4696 62.493 85.657 62.4123 85.8096 62.2511C85.9665 62.0898 86.045 61.8696 86.045 61.5907ZM89.1353 61.5841C89.1353 61.2092 89.205 60.8801 89.3445 60.5968C89.4884 60.3134 89.6824 60.0955 89.9265 59.9429C90.1706 59.7904 90.443 59.7141 90.7438 59.7141C91.001 59.7141 91.2255 59.7664 91.4173 59.871C91.6134 59.9756 91.7638 60.1129 91.8684 60.2829V59.7664H92.9865V63.4149H91.8684V62.8984C91.7595 63.0684 91.6069 63.2057 91.4107 63.3103C91.2189 63.4149 90.9944 63.4672 90.7373 63.4672C90.4408 63.4672 90.1706 63.391 89.9265 63.2384C89.6824 63.0815 89.4884 62.8613 89.3445 62.578C89.205 62.2903 89.1353 61.959 89.1353 61.5841ZM91.8684 61.5907C91.8684 61.3117 91.79 61.0915 91.6331 60.9303C91.4805 60.769 91.293 60.6883 91.0707 60.6883C90.8484 60.6883 90.6588 60.769 90.5019 60.9303C90.3493 61.0872 90.273 61.3051 90.273 61.5841C90.273 61.8631 90.3493 62.0854 90.5019 62.2511C90.6588 62.4123 90.8484 62.493 91.0707 62.493C91.293 62.493 91.4805 62.4123 91.6331 62.2511C91.79 62.0898 91.8684 61.8696 91.8684 61.5907ZM96.0186 59.7271C96.4458 59.7271 96.7858 59.8666 97.0386 60.1456C97.2958 60.4202 97.4244 60.7995 97.4244 61.2833V63.4149H96.3128V61.4337C96.3128 61.1896 96.2496 61 96.1232 60.8649C95.9968 60.7297 95.8268 60.6622 95.6132 60.6622C95.3996 60.6622 95.2296 60.7297 95.1032 60.8649C94.9768 61 94.9136 61.1896 94.9136 61.4337V63.4149H93.7954V59.7664H94.9136V60.2502C95.0269 60.089 95.1795 59.9625 95.3713 59.871C95.5631 59.7751 95.7788 59.7271 96.0186 59.7271ZM97.979 61.5841C97.979 61.2092 98.0488 60.8801 98.1883 60.5968C98.3321 60.3134 98.5261 60.0955 98.7702 59.9429C99.0143 59.7904 99.2868 59.7141 99.5875 59.7141C99.8273 59.7141 100.045 59.7642 100.241 59.8645C100.442 59.9647 100.599 60.0999 100.712 60.2699V58.5764H101.83V63.4149H100.712V62.8918C100.608 63.0662 100.457 63.2057 100.261 63.3103C100.069 63.4149 99.8447 63.4672 99.5875 63.4672C99.2868 63.4672 99.0143 63.391 98.7702 63.2384C98.5261 63.0815 98.3321 62.8613 98.1883 62.578C98.0488 62.2903 97.979 61.959 97.979 61.5841ZM100.712 61.5907C100.712 61.3117 100.634 61.0915 100.477 60.9303C100.324 60.769 100.137 60.6883 99.9145 60.6883C99.6922 60.6883 99.5025 60.769 99.3456 60.9303C99.193 61.0872 99.1168 61.3051 99.1168 61.5841C99.1168 61.8631 99.193 62.0854 99.3456 62.2511C99.5025 62.4123 99.6922 62.493 99.9145 62.493C100.137 62.493 100.324 62.4123 100.477 62.2511C100.634 62.0898 100.712 61.8696 100.712 61.5907ZM105.143 60.3745C105.274 60.174 105.437 60.017 105.633 59.9037C105.829 59.786 106.047 59.7271 106.287 59.7271V60.9106H105.98C105.701 60.9106 105.492 60.9717 105.352 61.0937C105.213 61.2114 105.143 61.4207 105.143 61.7214V63.4149H104.025V59.7664H105.143V60.3745ZM110.261 61.5318C110.261 61.6364 110.254 61.7454 110.241 61.8587H107.711C107.728 62.0854 107.8 62.2598 107.927 62.3818C108.057 62.4995 108.217 62.5584 108.404 62.5584C108.683 62.5584 108.877 62.4407 108.986 62.2053H110.176C110.115 62.445 110.004 62.6608 109.842 62.8526C109.686 63.0444 109.487 63.1948 109.247 63.3038C109.008 63.4128 108.74 63.4672 108.443 63.4672C108.086 63.4672 107.768 63.391 107.489 63.2384C107.21 63.0858 106.992 62.8679 106.835 62.5845C106.678 62.3012 106.599 61.9699 106.599 61.5907C106.599 61.2114 106.676 60.8801 106.828 60.5968C106.985 60.3134 107.203 60.0955 107.482 59.9429C107.761 59.7904 108.081 59.7141 108.443 59.7141C108.796 59.7141 109.11 59.7882 109.385 59.9364C109.659 60.0846 109.873 60.296 110.026 60.5706C110.182 60.8453 110.261 61.1656 110.261 61.5318ZM109.117 61.2376C109.117 61.0458 109.051 60.8932 108.92 60.7799C108.79 60.6665 108.626 60.6099 108.43 60.6099C108.243 60.6099 108.084 60.6644 107.953 60.7733C107.826 60.8823 107.748 61.0371 107.717 61.2376H109.117ZM111.969 60.2829C112.078 60.1129 112.228 59.9756 112.42 59.871C112.612 59.7664 112.836 59.7141 113.094 59.7141C113.394 59.7141 113.667 59.7904 113.911 59.9429C114.155 60.0955 114.347 60.3134 114.486 60.5968C114.63 60.8801 114.702 61.2092 114.702 61.5841C114.702 61.959 114.63 62.2903 114.486 62.578C114.347 62.8613 114.155 63.0815 113.911 63.2384C113.667 63.391 113.394 63.4672 113.094 63.4672C112.841 63.4672 112.616 63.4149 112.42 63.3103C112.228 63.2057 112.078 63.0706 111.969 62.9049V65.1542H110.851V59.7664H111.969V60.2829ZM113.564 61.5841C113.564 61.3051 113.486 61.0872 113.329 60.9303C113.176 60.769 112.987 60.6883 112.76 60.6883C112.538 60.6883 112.348 60.769 112.191 60.9303C112.039 61.0915 111.962 61.3117 111.962 61.5907C111.962 61.8696 112.039 62.0898 112.191 62.2511C112.348 62.4123 112.538 62.493 112.76 62.493C112.982 62.493 113.172 62.4123 113.329 62.2511C113.486 62.0854 113.564 61.8631 113.564 61.5841ZM116.949 63.4672C116.592 63.4672 116.269 63.391 115.982 63.2384C115.698 63.0858 115.474 62.8679 115.308 62.5845C115.147 62.3012 115.066 61.9699 115.066 61.5907C115.066 61.2158 115.149 60.8867 115.315 60.6033C115.48 60.3156 115.707 60.0955 115.995 59.9429C116.282 59.7904 116.605 59.7141 116.962 59.7141C117.32 59.7141 117.643 59.7904 117.93 59.9429C118.218 60.0955 118.445 60.3156 118.61 60.6033C118.776 60.8867 118.859 61.2158 118.859 61.5907C118.859 61.9655 118.774 62.2968 118.604 62.5845C118.438 62.8679 118.209 63.0858 117.917 63.2384C117.629 63.391 117.307 63.4672 116.949 63.4672ZM116.949 62.4995C117.163 62.4995 117.344 62.4211 117.492 62.2641C117.645 62.1072 117.721 61.8827 117.721 61.5907C117.721 61.2986 117.647 61.0741 117.499 60.9172C117.355 60.7603 117.176 60.6818 116.962 60.6818C116.745 60.6818 116.564 60.7603 116.42 60.9172C116.276 61.0697 116.204 61.2942 116.204 61.5907C116.204 61.8827 116.274 62.1072 116.413 62.2641C116.557 62.4211 116.736 62.4995 116.949 62.4995ZM120.57 60.3745C120.701 60.174 120.864 60.017 121.06 59.9037C121.257 59.786 121.474 59.7271 121.714 59.7271V60.9106H121.407C121.128 60.9106 120.919 60.9717 120.779 61.0937C120.64 61.2114 120.57 61.4207 120.57 61.7214V63.4149H119.452V59.7664H120.57V60.3745ZM124.282 62.4668V63.4149H123.713C123.308 63.4149 122.992 63.3169 122.765 63.1207C122.539 62.9202 122.425 62.5954 122.425 62.1464V60.6949H121.981V59.7664H122.425V58.8771H123.543V59.7664H124.276V60.6949H123.543V62.1595C123.543 62.2685 123.569 62.347 123.622 62.3949C123.674 62.4429 123.761 62.4668 123.883 62.4668H124.282ZM125.467 59.3871C125.271 59.3871 125.11 59.3305 124.983 59.2171C124.861 59.0994 124.8 58.9556 124.8 58.7856C124.8 58.6112 124.861 58.4674 124.983 58.354C125.11 58.2363 125.271 58.1775 125.467 58.1775C125.659 58.1775 125.816 58.2363 125.938 58.354C126.064 58.4674 126.128 58.6112 126.128 58.7856C126.128 58.9556 126.064 59.0994 125.938 59.2171C125.816 59.3305 125.659 59.3871 125.467 59.3871ZM126.023 59.7664V63.4149H124.905V59.7664H126.023ZM129.056 59.7271C129.484 59.7271 129.824 59.8666 130.077 60.1456C130.334 60.4202 130.462 60.7995 130.462 61.2833V63.4149H129.351V61.4337C129.351 61.1896 129.288 61 129.161 60.8649C129.035 60.7297 128.865 60.6622 128.651 60.6622C128.438 60.6622 128.268 60.7297 128.141 60.8649C128.015 61 127.951 61.1896 127.951 61.4337V63.4149H126.833V59.7664H127.951V60.2502C128.065 60.089 128.217 59.9625 128.409 59.871C128.601 59.7751 128.817 59.7271 129.056 59.7271ZM132.625 59.7141C132.883 59.7141 133.107 59.7664 133.299 59.871C133.495 59.9756 133.645 60.1129 133.75 60.2829V59.7664H134.868V63.4084C134.868 63.744 134.801 64.047 134.666 64.3173C134.535 64.5919 134.332 64.8098 134.057 64.9711C133.787 65.1324 133.449 65.2131 133.044 65.2131C132.503 65.2131 132.065 65.0845 131.73 64.8273C131.394 64.5744 131.202 64.2301 131.154 63.7942H132.259C132.294 63.9337 132.377 64.0426 132.508 64.1211C132.639 64.2039 132.8 64.2453 132.992 64.2453C133.223 64.2453 133.406 64.1778 133.541 64.0426C133.68 63.9119 133.75 63.7005 133.75 63.4084V62.8918C133.641 63.0618 133.491 63.2013 133.299 63.3103C133.107 63.4149 132.883 63.4672 132.625 63.4672C132.325 63.4672 132.052 63.391 131.808 63.2384C131.564 63.0815 131.37 62.8613 131.226 62.578C131.087 62.2903 131.017 61.959 131.017 61.5841C131.017 61.2092 131.087 60.8801 131.226 60.5968C131.37 60.3134 131.564 60.0955 131.808 59.9429C132.052 59.7904 132.325 59.7141 132.625 59.7141ZM133.75 61.5907C133.75 61.3117 133.672 61.0915 133.515 60.9303C133.362 60.769 133.175 60.6883 132.952 60.6883C132.73 60.6883 132.54 60.769 132.384 60.9303C132.231 61.0872 132.155 61.3051 132.155 61.5841C132.155 61.8631 132.231 62.0854 132.384 62.2511C132.54 62.4123 132.73 62.493 132.952 62.493C133.175 62.493 133.362 62.4123 133.515 62.2511C133.672 62.0898 133.75 61.8696 133.75 61.5907Z" fill="#062158"/>
<path d="M13.8793 21.2912C17.0395 21.2912 19.8012 21.9176 22.1642 23.1703C24.5273 24.423 26.3494 26.1881 27.6305 28.4658C28.9402 30.7149 29.595 33.32 29.595 36.2809C29.595 39.2133 28.9402 41.8184 27.6305 44.096C26.3494 46.3736 24.513 48.1388 22.1215 49.3915C19.7585 50.6442 17.0111 51.2706 13.8793 51.2706H2.64775V21.2912H13.8793ZM13.4096 44.9501C16.1712 44.9501 18.3207 44.1957 19.8581 42.6867C21.3955 41.1778 22.1642 39.0425 22.1642 36.2809C22.1642 33.5193 21.3955 31.3697 19.8581 29.8323C18.3207 28.2949 16.1712 27.5262 13.4096 27.5262H9.95041V44.9501H13.4096ZM30.5158 39.313C30.5158 36.8645 30.9713 34.715 31.8824 32.8644C32.8219 31.0139 34.0889 29.5903 35.6832 28.5939C37.2775 27.5974 39.0569 27.0992 41.0214 27.0992C42.7012 27.0992 44.1674 27.4408 45.4201 28.1241C46.7012 28.8074 47.6835 29.7042 48.3668 30.8146V27.4408H55.6694V51.2706H48.3668V47.8968C47.655 49.0072 46.6585 49.904 45.3774 50.5873C44.1247 51.2706 42.6584 51.6122 40.9787 51.6122C39.0427 51.6122 37.2775 51.114 35.6832 50.1175C34.0889 49.0926 32.8219 47.6548 31.8824 45.8042C30.9713 43.9252 30.5158 41.7614 30.5158 39.313ZM48.3668 39.3557C48.3668 37.5336 47.8543 36.0958 46.8294 35.0424C45.8329 33.989 44.6087 33.4623 43.1567 33.4623C41.7047 33.4623 40.4662 33.989 39.4413 35.0424C38.4448 36.0674 37.9466 37.4909 37.9466 39.313C37.9466 41.1351 38.4448 42.5871 39.4413 43.669C40.4662 44.7224 41.7047 45.2491 43.1567 45.2491C44.6087 45.2491 45.8329 44.7224 46.8294 43.669C47.8543 42.6156 48.3668 41.1778 48.3668 39.3557ZM89.6507 27.1846C92.6117 27.1846 94.9605 28.0814 96.6972 29.875C98.4623 31.6687 99.3449 34.1598 99.3449 37.3485V51.2706H92.085V38.3308C92.085 36.7934 91.6721 35.6118 90.8465 34.7862C90.0493 33.9321 88.939 33.505 87.5155 33.505C86.0919 33.505 84.9674 33.9321 84.1417 34.7862C83.3445 35.6118 82.946 36.7934 82.946 38.3308V51.2706H75.686V38.3308C75.686 36.7934 75.2732 35.6118 74.4475 34.7862C73.6504 33.9321 72.54 33.505 71.1165 33.505C69.693 33.505 68.5684 33.9321 67.7428 34.7862C66.9456 35.6118 66.547 36.7934 66.547 38.3308V51.2706H59.2443V27.4408H66.547V30.4302C67.2872 29.4338 68.2552 28.6508 69.451 28.0814C70.6467 27.4835 71.9991 27.1846 73.508 27.1846C75.3017 27.1846 76.896 27.5689 78.291 28.3376C79.7146 29.1063 80.8249 30.2025 81.6221 31.626C82.4477 30.3163 83.5723 29.2487 84.9958 28.4231C86.4193 27.5974 87.971 27.1846 89.6507 27.1846ZM101.292 39.313C101.292 36.8645 101.748 34.715 102.659 32.8644C103.598 31.0139 104.865 29.5903 106.459 28.5939C108.054 27.5974 109.833 27.0992 111.798 27.0992C113.477 27.0992 114.944 27.4408 116.196 28.1241C117.477 28.8074 118.46 29.7042 119.143 30.8146V27.4408H126.446V51.2706H119.143V47.8968C118.431 49.0072 117.435 49.904 116.154 50.5873C114.901 51.2706 113.435 51.6122 111.755 51.6122C109.819 51.6122 108.054 51.114 106.459 50.1175C104.865 49.0926 103.598 47.6548 102.659 45.8042C101.748 43.9252 101.292 41.7614 101.292 39.313ZM119.143 39.3557C119.143 37.5336 118.63 36.0958 117.606 35.0424C116.609 33.989 115.385 33.4623 113.933 33.4623C112.481 33.4623 111.242 33.989 110.217 35.0424C109.221 36.0674 108.723 37.4909 108.723 39.313C108.723 41.1351 109.221 42.5871 110.217 43.669C111.242 44.7224 112.481 45.2491 113.933 45.2491C115.385 45.2491 116.609 44.7224 117.606 43.669C118.63 42.6156 119.143 41.1778 119.143 39.3557ZM137.323 31.4124C138.177 30.1028 139.245 29.0779 140.526 28.3376C141.807 27.5689 143.231 27.1846 144.797 27.1846V34.9143H142.79C140.967 34.9143 139.601 35.3129 138.69 36.1101C137.779 36.8788 137.323 38.2453 137.323 40.2098V51.2706H130.021V27.4408H137.323V31.4124Z" fill="#062158"/>
<path fill-rule="evenodd" clip-rule="evenodd" d="M158.781 7.99603V4.60805C158.778 3.38674 158.292 2.21621 157.428 1.35261C156.564 0.489009 155.394 0.00266372 154.173 0H141.266C140.044 0 138.872 0.48549 138.008 1.34967C137.143 2.21385 136.658 3.38592 136.658 4.60805V15.1249C136.653 15.6503 136.752 16.1715 136.951 16.6578C137.15 17.1442 137.444 17.5858 137.816 17.9569C138.188 18.328 138.63 18.6209 139.117 18.8186C139.604 19.0162 140.126 19.1145 140.651 19.1078V20.8219C140.663 21.0289 140.726 21.2296 140.835 21.4057C140.944 21.5819 141.096 21.7278 141.276 21.8303C141.465 21.9264 141.677 21.9687 141.889 21.9527C142.1 21.9367 142.303 21.863 142.476 21.7395C142.809 21.4873 143.176 21.2207 143.544 20.9536L143.544 20.9535L143.544 20.9534C143.867 20.7187 144.191 20.4836 144.493 20.2573V14.9132C144.493 13.0786 145.221 11.3192 146.519 10.022C147.816 8.7248 149.575 7.99603 151.41 7.99603H158.781ZM151.41 10.3051H164.317C165.539 10.3051 166.711 10.7906 167.575 11.6548C168.439 12.5189 168.925 13.691 168.925 14.9131V25.4602C168.927 26.5024 168.517 27.5032 167.784 28.2439C167.051 28.9846 166.054 29.4049 165.012 29.4129V31.127C165.004 31.3349 164.943 31.5371 164.833 31.7139C164.724 31.8906 164.57 32.0359 164.387 32.1354C164.198 32.2315 163.986 32.2738 163.775 32.2578C163.563 32.2418 163.36 32.1681 163.187 32.0446L159.477 29.3927H151.41C150.189 29.3901 149.018 28.9037 148.155 28.0401C147.291 27.1765 146.805 26.006 146.802 24.7847V14.9131C146.805 13.6918 147.291 12.5213 148.155 11.6577C149.018 10.7941 150.189 10.3078 151.41 10.3051ZM159.296 19.3638L159.552 13.227H157.182L157.438 19.3638H159.296ZM157.451 22.3105C157.699 22.5326 158.015 22.6436 158.399 22.6436C158.775 22.6436 159.083 22.5326 159.322 22.3105C159.569 22.0799 159.693 21.798 159.693 21.4649C159.693 21.1233 159.569 20.8372 159.322 20.6066C159.083 20.3759 158.775 20.2606 158.399 20.2606C158.015 20.2606 157.699 20.3759 157.451 20.6066C157.212 20.8372 157.093 21.1233 157.093 21.4649C157.093 21.798 157.212 22.0799 157.451 22.3105ZM164.075 23.0474C164.349 23.1384 164.499 23.4353 164.38 23.6975C164.013 24.5028 163.437 25.1986 162.706 25.7087C161.976 26.2189 161.124 26.5208 160.242 26.5873C159.954 26.609 159.727 26.3657 159.736 26.0778L159.742 25.8789C159.751 25.5909 159.992 25.3683 160.278 25.3365C160.893 25.2684 161.484 25.0474 161.995 24.6903C162.506 24.3332 162.917 23.8547 163.193 23.3013C163.321 23.0435 163.613 22.8935 163.886 22.9845L164.075 23.0474ZM155.123 19.3638L155.38 13.227H153.009L153.266 19.3638H155.123ZM153.279 22.3105C153.526 22.5326 153.842 22.6436 154.227 22.6436C154.602 22.6436 154.91 22.5326 155.149 22.3105C155.397 22.0799 155.521 21.798 155.521 21.4649C155.521 21.1233 155.397 20.8372 155.149 20.6066C154.91 20.3759 154.602 20.2606 154.227 20.2606C153.842 20.2606 153.526 20.3759 153.279 20.6066C153.039 20.8372 152.92 21.1233 152.92 21.4649C152.92 21.798 153.039 22.0799 153.279 22.3105Z" fill="#2AC383"/>
</svg>
