<svg width="115" height="47" viewBox="0 0 115 47" fill="none" xmlns="http://www.w3.org/2000/svg">
<path d="M9.44872 14.4981C11.6001 14.4981 13.4802 14.9245 15.0889 15.7773C16.6976 16.6301 17.938 17.8318 18.8102 19.3823C19.7018 20.9135 20.1476 22.687 20.1476 24.7027C20.1476 26.699 19.7018 28.4725 18.8102 30.0231C17.938 31.5736 16.6879 32.7753 15.0598 33.6281C13.4511 34.4809 11.5807 34.9073 9.44872 34.9073H1.80253V14.4981H9.44872ZM9.12892 30.6045C11.009 30.6045 12.4723 30.0909 13.5189 29.0636C14.5656 28.0364 15.0889 26.5828 15.0889 24.7027C15.0889 22.8226 14.5656 21.3593 13.5189 20.3127C12.4723 19.266 11.009 18.7427 9.12892 18.7427H6.77401V30.6045H9.12892ZM20.7745 26.7669C20.7745 25.1 21.0846 23.6367 21.7048 22.3769C22.3444 21.117 23.2069 20.1479 24.2923 19.4696C25.3777 18.7912 26.5891 18.452 27.9264 18.452C29.07 18.452 30.0681 18.6846 30.9209 19.1498C31.7931 19.6149 32.4618 20.2255 32.927 20.9814V18.6846H37.8985V34.9073H32.927V32.6106C32.4424 33.3664 31.7641 33.977 30.8919 34.4422C30.0391 34.9073 29.0409 35.1399 27.8973 35.1399C26.5794 35.1399 25.3777 34.8007 24.2923 34.1223C23.2069 33.4246 22.3444 32.4458 21.7048 31.186C21.0846 29.9068 20.7745 28.4337 20.7745 26.7669ZM32.927 26.796C32.927 25.5555 32.5781 24.5767 31.8803 23.8596C31.202 23.1424 30.3686 22.7839 29.3801 22.7839C28.3916 22.7839 27.5485 23.1424 26.8507 23.8596C26.1724 24.5573 25.8332 25.5264 25.8332 26.7669C25.8332 28.0073 26.1724 28.9958 26.8507 29.7323C27.5485 30.4495 28.3916 30.808 29.3801 30.808C30.3686 30.808 31.202 30.4495 31.8803 29.7323C32.5781 29.0152 32.927 28.0364 32.927 26.796ZM61.0322 18.5102C63.0479 18.5102 64.6469 19.1207 65.8292 20.3418C67.0309 21.5628 67.6317 23.2587 67.6317 25.4295V34.9073H62.6893V26.0982C62.6893 25.0516 62.4083 24.2472 61.8462 23.6851C61.3035 23.1037 60.5476 22.813 59.5785 22.813C58.6094 22.813 57.8438 23.1037 57.2817 23.6851C56.739 24.2472 56.4677 25.0516 56.4677 26.0982V34.9073H51.5253V26.0982C51.5253 25.0516 51.2442 24.2472 50.6822 23.6851C50.1395 23.1037 49.3836 22.813 48.4145 22.813C47.4454 22.813 46.6798 23.1037 46.1177 23.6851C45.575 24.2472 45.3037 25.0516 45.3037 26.0982V34.9073H40.3322V18.6846H45.3037V20.7197C45.8076 20.0413 46.4666 19.5083 47.2806 19.1207C48.0947 18.7137 49.0153 18.5102 50.0426 18.5102C51.2636 18.5102 52.349 18.7718 53.2987 19.2951C54.2678 19.8184 55.0237 20.5646 55.5664 21.5337C56.1285 20.6422 56.8941 19.9153 57.8632 19.3533C58.8323 18.7912 59.8886 18.5102 61.0322 18.5102ZM68.9573 26.7669C68.9573 25.1 69.2674 23.6367 69.8876 22.3769C70.5272 21.117 71.3897 20.1479 72.4751 19.4696C73.5605 18.7912 74.7719 18.452 76.1092 18.452C77.2528 18.452 78.2509 18.6846 79.1037 19.1498C79.9759 19.6149 80.6446 20.2255 81.1098 20.9814V18.6846H86.0813V34.9073H81.1098V32.6106C80.6252 33.3664 79.9469 33.977 79.0747 34.4422C78.2219 34.9073 77.2237 35.1399 76.0801 35.1399C74.7622 35.1399 73.5605 34.8007 72.4751 34.1223C71.3897 33.4246 70.5272 32.4458 69.8876 31.186C69.2674 29.9068 68.9573 28.4337 68.9573 26.7669ZM81.1098 26.796C81.1098 25.5555 80.7609 24.5767 80.0631 23.8596C79.3848 23.1424 78.5513 22.7839 77.5629 22.7839C76.5744 22.7839 75.7313 23.1424 75.0335 23.8596C74.3551 24.5573 74.016 25.5264 74.016 26.7669C74.016 28.0073 74.3551 28.9958 75.0335 29.7323C75.7313 30.4495 76.5744 30.808 77.5629 30.808C78.5513 30.808 79.3848 30.4495 80.0631 29.7323C80.7609 29.0152 81.1098 28.0364 81.1098 26.796ZM93.4865 21.3884C94.0679 20.4968 94.7947 19.7991 95.6669 19.2951C96.5391 18.7718 97.5082 18.5102 98.5742 18.5102V23.7724H97.2078C95.9674 23.7724 95.037 24.0437 94.4168 24.5864C93.7966 25.1097 93.4865 26.0401 93.4865 27.3774V34.9073H88.515V18.6846H93.4865V21.3884Z" fill="#062158"/>
<path fill-rule="evenodd" clip-rule="evenodd" d="M108.094 5.44351V3.13706C108.092 2.30561 107.761 1.50874 107.173 0.920825C106.585 0.332906 105.789 0.0018134 104.957 0H96.1706C95.3386 0 94.5407 0.33051 93.9524 0.918822C93.3641 1.50713 93.0336 2.30506 93.0336 3.13706V10.2967C93.0299 10.6544 93.0977 11.0092 93.2331 11.3403C93.3685 11.6713 93.5687 11.972 93.822 12.2246C94.0752 12.4772 94.3764 12.6767 94.7078 12.8112C95.0392 12.9458 95.3942 13.0127 95.7519 13.0081V14.1751C95.7598 14.316 95.8029 14.4526 95.8773 14.5725C95.9516 14.6924 96.0548 14.7918 96.1775 14.8615C96.3063 14.927 96.4505 14.9558 96.5946 14.9449C96.7386 14.934 96.8769 14.8838 96.9944 14.7998C97.221 14.628 97.4709 14.4465 97.7214 14.2646C97.9414 14.1048 98.1618 13.9448 98.3672 13.7907V10.1525C98.3672 8.90362 98.8634 7.70586 99.7465 6.82275C100.63 5.93964 101.827 5.44351 103.076 5.44351H108.094ZM103.076 7.01548H111.863C112.695 7.01548 113.493 7.34599 114.081 7.9343C114.669 8.52261 115 9.32054 115 10.1525V17.3328C115.002 18.0422 114.723 18.7236 114.224 19.2278C113.724 19.7321 113.046 20.0182 112.337 20.0236V21.1906C112.331 21.3321 112.289 21.4697 112.215 21.5901C112.14 21.7104 112.035 21.8093 111.911 21.877C111.782 21.9424 111.638 21.9713 111.494 21.9604C111.35 21.9495 111.212 21.8993 111.094 21.8152L108.568 20.0099H103.076C102.245 20.0081 101.448 19.677 100.86 19.0891C100.272 18.5011 99.9412 17.7043 99.9394 16.8728V10.1525C99.9412 9.32109 100.272 8.52422 100.86 7.9363C101.448 7.34838 102.245 7.01729 103.076 7.01548ZM108.445 13.6516L108.62 9.47377H107.006L107.18 13.6516H108.445ZM107.189 15.6576C107.358 15.8088 107.573 15.8844 107.835 15.8844C108.09 15.8844 108.3 15.8088 108.463 15.6576C108.631 15.5006 108.715 15.3087 108.715 15.082C108.715 14.8494 108.631 14.6546 108.463 14.4976C108.3 14.3406 108.09 14.2621 107.835 14.2621C107.573 14.2621 107.358 14.3406 107.189 14.4976C107.026 14.6546 106.945 14.8494 106.945 15.082C106.945 15.3087 107.026 15.5006 107.189 15.6576ZM111.699 15.6901C111.885 15.7521 111.987 15.9542 111.906 16.1327C111.656 16.681 111.264 17.1546 110.767 17.5019C110.269 17.8492 109.689 18.0547 109.089 18.1C108.893 18.1148 108.739 17.9492 108.745 17.7531L108.749 17.6177C108.755 17.4217 108.919 17.2702 109.114 17.2485C109.532 17.2021 109.934 17.0517 110.282 16.8086C110.631 16.5655 110.91 16.2398 111.098 15.863C111.185 15.6875 111.384 15.5853 111.57 15.6473L111.699 15.6901ZM105.604 13.6516L105.779 9.47377H104.165L104.34 13.6516H105.604ZM104.348 15.6576C104.517 15.8088 104.732 15.8844 104.994 15.8844C105.25 15.8844 105.459 15.8088 105.622 15.6576C105.791 15.5006 105.875 15.3087 105.875 15.082C105.875 14.8494 105.791 14.6546 105.622 14.4976C105.459 14.3406 105.25 14.2621 104.994 14.2621C104.732 14.2621 104.517 14.3406 104.348 14.4976C104.186 14.6546 104.104 14.8494 104.104 15.082C104.104 15.3087 104.186 15.5006 104.348 15.6576Z" fill="#2AC383"/>
</svg>
