<svg width="476" height="476" viewBox="0 0 476 476" fill="none" xmlns="http://www.w3.org/2000/svg">
<g filter="url(#filter0_d_1817_2)">
<rect x="21" y="17" width="434" height="434" rx="217" fill="#062158"/>
</g>
<path fill-rule="evenodd" clip-rule="evenodd" d="M281.808 174.483V149.704C281.789 140.771 278.232 132.209 271.915 125.893C265.599 119.577 257.037 116.019 248.105 116H153.705C144.766 116 136.194 119.551 129.873 125.872C123.552 132.192 120.002 140.765 120.002 149.704V226.624C119.962 230.467 120.691 234.279 122.145 237.836C123.6 241.393 125.751 244.624 128.472 247.338C131.193 250.052 134.428 252.194 137.989 253.64C141.55 255.086 145.364 255.805 149.206 255.756V268.293C149.292 269.806 149.755 271.274 150.554 272.563C151.352 273.851 152.461 274.919 153.779 275.668C155.162 276.371 156.712 276.681 158.26 276.564C159.807 276.447 161.293 275.907 162.555 275.004C164.989 273.159 167.675 271.209 170.366 269.254L170.367 269.254L170.368 269.253L170.369 269.252L170.37 269.252C172.732 267.536 175.099 265.817 177.305 264.163V225.076C177.305 211.658 182.635 198.789 192.123 189.302C201.611 179.814 214.479 174.483 227.897 174.483H281.808ZM227.898 191.372H322.297C331.236 191.372 339.809 194.923 346.129 201.244C352.45 207.564 356.001 216.137 356.001 225.076V302.218C356.02 309.84 353.021 317.16 347.659 322.578C342.297 327.995 335.008 331.069 327.386 331.128V343.665C327.328 345.185 326.877 346.664 326.075 347.957C325.273 349.25 324.149 350.312 322.813 351.04C321.43 351.743 319.88 352.053 318.333 351.936C316.785 351.819 315.299 351.279 314.037 350.376L286.897 330.98H227.898C218.965 330.961 210.404 327.403 204.087 321.087C197.771 314.771 194.214 306.209 194.194 297.277V225.076C194.214 216.143 197.771 207.582 204.087 201.265C210.404 194.949 218.965 191.392 227.898 191.372ZM285.577 258.231L287.452 213.346H270.116L271.99 258.231H285.577ZM272.084 279.784C273.895 281.408 276.207 282.22 279.018 282.22C281.767 282.22 284.016 281.408 285.765 279.784C287.576 278.097 288.482 276.035 288.482 273.599C288.482 271.1 287.576 269.007 285.765 267.321C284.016 265.634 281.767 264.791 279.018 264.791C276.207 264.791 273.895 265.634 272.084 267.321C270.335 269.007 269.46 271.1 269.46 273.599C269.46 276.035 270.335 278.097 272.084 279.784ZM256.216 213.346L254.342 258.231H240.755L238.881 213.346H256.216ZM247.783 282.22C244.972 282.22 242.66 281.408 240.849 279.784C239.1 278.097 238.225 276.035 238.225 273.599C238.225 271.1 239.1 269.007 240.849 267.321C242.66 265.634 244.972 264.791 247.783 264.791C250.532 264.791 252.781 265.634 254.53 267.321C256.341 269.007 257.247 271.1 257.247 273.599C257.247 276.035 256.341 278.097 254.53 279.784C252.781 281.408 250.532 282.22 247.783 282.22ZM322.757 289.325C323.629 287.407 322.531 285.236 320.532 284.57L319.151 284.11C317.152 283.444 315.015 284.541 314.076 286.427C312.06 290.475 309.056 293.975 305.316 296.587C301.575 299.199 297.255 300.814 292.761 301.313C290.667 301.545 288.901 303.174 288.838 305.28L288.794 306.734C288.731 308.84 290.391 310.62 292.492 310.461C298.945 309.975 305.174 307.766 310.517 304.035C315.86 300.304 320.079 295.215 322.757 289.325Z" fill="white"/>
<path fill-rule="evenodd" clip-rule="evenodd" d="M281.808 149.704V174.483H227.897C214.479 174.483 201.611 179.814 192.123 189.302C182.635 198.789 177.305 211.658 177.305 225.076V264.163C172.585 267.703 167.128 271.538 162.555 275.004C161.293 275.907 159.807 276.447 158.26 276.564C156.712 276.681 155.162 276.371 153.779 275.668C152.461 274.919 151.352 273.851 150.554 272.563C149.755 271.274 149.292 269.806 149.206 268.293V255.756C145.364 255.805 141.55 255.086 137.989 253.64C134.428 252.194 131.193 250.052 128.472 247.338C125.751 244.624 123.6 241.393 122.145 237.836C120.691 234.279 119.962 230.467 120.002 226.624V149.704C120.002 140.765 123.552 132.192 129.873 125.872C136.194 119.551 144.766 116 153.705 116H248.105C257.037 116.019 265.599 119.577 271.915 125.893C278.232 132.209 281.789 140.771 281.808 149.704Z" fill="#00B76A"/>
<defs>
<filter id="filter0_d_1817_2" x="0.5" y="0.5" width="475" height="475" filterUnits="userSpaceOnUse" color-interpolation-filters="sRGB">
<feFlood flood-opacity="0" result="BackgroundImageFix"/>
<feColorMatrix in="SourceAlpha" type="matrix" values="0 0 0 0 0 0 0 0 0 0 0 0 0 0 0 0 0 0 127 0" result="hardAlpha"/>
<feOffset dy="4"/>
<feGaussianBlur stdDeviation="10.25"/>
<feComposite in2="hardAlpha" operator="out"/>
<feColorMatrix type="matrix" values="0 0 0 0 0 0 0 0 0 0 0 0 0 0 0 0 0 0 0.01 0"/>
<feBlend mode="normal" in2="BackgroundImageFix" result="effect1_dropShadow_1817_2"/>
<feBlend mode="normal" in="SourceGraphic" in2="effect1_dropShadow_1817_2" result="shape"/>
</filter>
</defs>
</svg>
