<svg width="28" height="25" viewBox="0 0 28 25" fill="none" xmlns="http://www.w3.org/2000/svg">
<path d="M23.1985 0H3.86026C1.73165 0 0 1.73171 0 3.86026V16.9118C0 19.0404 1.73165 20.7721 3.86026 20.7721H5.37507L5.40472 24.1799C5.40654 24.3981 5.49449 24.6067 5.64939 24.7603C5.80429 24.9138 6.01361 25 6.23175 25C6.41139 25 6.5897 24.9415 6.73726 24.8277L11.9917 20.7722H23.1985C25.327 20.7722 27.0587 19.0405 27.0587 16.9119V3.86026C27.0587 1.73171 25.327 0 23.1985 0Z" fill="#2AC383"/>
<path d="M13.5282 4.17334L13.3538 11.8176H11.6515L11.4824 4.17334H13.5282ZM12.5026 15.1163C12.1819 15.1163 11.907 15.0035 11.678 14.778C11.4524 14.5524 11.3396 14.2775 11.3396 13.9533C11.3396 13.6361 11.4524 13.3647 11.678 13.1392C11.907 12.9136 12.1819 12.8008 12.5026 12.8008C12.8163 12.8008 13.0877 12.9136 13.3168 13.1392C13.5494 13.3647 13.6657 13.6361 13.6657 13.9533C13.6657 14.1683 13.611 14.3639 13.5018 14.5401C13.3961 14.7163 13.2551 14.8573 13.0789 14.963C12.9062 15.0652 12.7141 15.1163 12.5026 15.1163Z" fill="#062158"/>
<path d="M17.9942 4.17334L17.8197 11.8176H16.1175L15.9483 4.17334H17.9942ZM16.9686 15.1163C16.6479 15.1163 16.373 15.0035 16.1439 14.778C15.9184 14.5524 15.8056 14.2775 15.8056 13.9533C15.8056 13.6361 15.9184 13.3647 16.1439 13.1392C16.373 12.9136 16.6479 12.8008 16.9686 12.8008C17.2823 12.8008 17.5537 12.9136 17.7827 13.1392C18.0153 13.3647 18.1316 13.6361 18.1316 13.9533C18.1316 14.1683 18.077 14.3639 17.9678 14.5401C17.862 14.7163 17.7211 14.8573 17.5448 14.963C17.3721 15.0652 17.1801 15.1163 16.9686 15.1163Z" fill="#062158"/>
</svg>
