<svg width="28" height="25" viewBox="0 0 28 25" fill="none" xmlns="http://www.w3.org/2000/svg">
<path d="M23.1985 0H3.86026C1.73165 0 0 1.73171 0 3.86026V16.9118C0 19.0404 1.73165 20.7721 3.86026 20.7721H5.37507L5.40472 24.1799C5.40654 24.3981 5.49449 24.6067 5.64939 24.7603C5.80429 24.9138 6.01361 25 6.23175 25C6.41139 25 6.5897 24.9415 6.73726 24.8277L11.9917 20.7722H23.1985C25.327 20.7722 27.0587 19.0405 27.0587 16.9119V3.86026C27.0587 1.73171 25.327 0 23.1985 0Z" fill="#2AC383"/>
<path fill-rule="evenodd" clip-rule="evenodd" d="M8.32803 4.477C8.43911 4.58844 8.50142 4.73941 8.50128 4.89675C8.50113 5.0541 8.43853 5.20495 8.32724 5.31617C7.6445 5.9956 7.10301 6.80346 6.73398 7.69316C6.36494 8.58286 6.17567 9.53681 6.17707 10.5C6.17572 11.4742 6.3694 12.4388 6.7467 13.337C7.124 14.2352 7.67729 15.0488 8.37394 15.7298C8.43091 15.784 8.47652 15.8491 8.50813 15.9212C8.53973 15.9932 8.5567 16.0708 8.55804 16.1495C8.55938 16.2282 8.54507 16.3063 8.51594 16.3794C8.48681 16.4525 8.44344 16.5191 8.38835 16.5753C8.33327 16.6315 8.26756 16.6762 8.19506 16.7067C8.12256 16.7373 8.0447 16.7532 7.96601 16.7534C7.88733 16.7536 7.80938 16.7382 7.73671 16.708C7.66404 16.6778 7.59809 16.6335 7.54269 16.5776C6.73326 15.7861 6.09039 14.8406 5.65191 13.7968C5.21344 12.7531 4.98824 11.6321 4.98957 10.5C4.98957 8.14717 5.94511 6.016 7.48807 4.47621C7.5995 4.36513 7.75047 4.30282 7.90782 4.30296C8.06516 4.30311 8.2168 4.36571 8.32803 4.477ZM18.7377 4.534C18.8501 4.42396 19.0017 4.36307 19.159 4.3647C19.3164 4.36633 19.4666 4.43036 19.5768 4.54271C21.1388 6.1319 22.0129 8.27173 22.0104 10.5C22.0104 12.8465 21.0604 14.9729 19.5238 16.5119C19.4125 16.6234 19.2615 16.6861 19.104 16.6863C18.9464 16.6864 18.7953 16.624 18.6838 16.5127C18.5723 16.4014 18.5096 16.2504 18.5095 16.0929C18.5093 15.9354 18.5717 15.7842 18.683 15.6728C19.3626 14.9938 19.9014 14.1874 20.2686 13.2997C20.6358 12.412 20.8242 11.4606 20.8229 10.5C20.8257 8.5827 20.0738 6.74133 18.7297 5.37396C18.6196 5.26159 18.5586 5.11009 18.56 4.95274C18.5615 4.79539 18.6254 4.64428 18.7377 4.534ZM10.5772 6.928C10.6847 7.04296 10.7423 7.19595 10.7371 7.35332C10.7319 7.51069 10.6644 7.65956 10.5494 7.76717C9.79815 8.47017 9.34294 9.43125 9.34294 10.4858C9.34294 11.5529 9.80924 12.5243 10.5764 13.2297C10.6923 13.3363 10.761 13.4847 10.7676 13.642C10.7741 13.7994 10.7179 13.9529 10.6112 14.0688C10.5045 14.1847 10.3562 14.2535 10.1988 14.26C10.0415 14.2666 9.88793 14.2103 9.77203 14.1037C8.78086 13.1925 8.15544 11.9108 8.15544 10.4858C8.15544 9.07738 8.76582 7.80992 9.73878 6.8995C9.85384 6.79201 10.0069 6.73462 10.1643 6.73997C10.3216 6.74531 10.4704 6.81295 10.5779 6.928M16.4632 6.95809C16.572 6.84434 16.7215 6.77844 16.8788 6.77488C17.0362 6.77132 17.1885 6.83038 17.3024 6.93909C18.25 7.84555 18.8437 9.09796 18.8437 10.4858C18.8437 11.891 18.2365 13.156 17.2683 14.0649C17.2118 14.1198 17.1449 14.1629 17.0716 14.1917C16.9982 14.2205 16.9198 14.2344 16.8411 14.2326C16.7623 14.2308 16.6846 14.2133 16.6127 14.1812C16.5407 14.1491 16.4759 14.103 16.4219 14.0456C16.3679 13.9881 16.3259 13.9205 16.2984 13.8467C16.2708 13.7729 16.2582 13.6943 16.2613 13.6156C16.2644 13.5368 16.2832 13.4595 16.3165 13.3881C16.3498 13.3167 16.397 13.2526 16.4553 13.1996C17.2034 12.4974 17.6562 11.5371 17.6562 10.4858C17.6562 9.4463 17.2137 8.49709 16.4814 7.79725C16.3678 7.68836 16.302 7.53879 16.2986 7.38144C16.2952 7.22408 16.3544 7.07181 16.4632 6.95809Z" fill="#062158"/>
<rect x="11.125" y="8.125" width="4.75" height="4.75" rx="2.375" fill="#062158"/>
</svg>
