<svg width="28" height="25" viewBox="0 0 28 25" fill="none" xmlns="http://www.w3.org/2000/svg">
<path d="M23.1985 0H3.86026C1.73165 0 0 1.73171 0 3.86026V16.9118C0 19.0404 1.73165 20.7721 3.86026 20.7721H5.37507L5.40472 24.1799C5.40654 24.3981 5.49449 24.6067 5.64939 24.7603C5.80429 24.9138 6.01361 25 6.23175 25C6.41139 25 6.5897 24.9415 6.73726 24.8277L11.9917 20.7722H23.1985C25.327 20.7722 27.0587 19.0405 27.0587 16.9119V3.86026C27.0587 1.73171 25.327 0 23.1985 0Z" fill="#FFCC00"/>
<path d="M12.9199 6.78752C13.0288 6.73955 13.1465 6.71482 13.2655 6.71492C13.3845 6.71495 13.5021 6.73977 13.6109 6.7878C13.7198 6.83583 13.8174 6.90601 13.8976 6.99386C13.9777 7.08172 14.0387 7.18533 14.0766 7.29807C14.1146 7.41081 14.1285 7.53022 14.1177 7.64867L13.7765 11.4043C13.7632 11.5306 13.7037 11.6474 13.6093 11.7324C13.515 11.8174 13.3925 11.8644 13.2655 11.8644C13.1386 11.8644 13.0161 11.8174 12.9218 11.7324C12.8274 11.6474 12.7679 11.5306 12.7546 11.4043L12.4124 7.64867C12.4016 7.53014 12.4156 7.41066 12.4536 7.29785C12.4915 7.18504 12.5526 7.08139 12.6329 6.99352C12.7132 6.90565 12.8109 6.83549 12.9199 6.78752Z" fill="#FFCC00"/>
<path d="M14.0834 13.4673C14.0834 13.9189 13.7172 14.2851 13.2656 14.2851C12.8139 14.2851 12.4478 13.9189 12.4478 13.4673C12.4478 13.0156 12.8139 12.6495 13.2656 12.6495C13.7172 12.6495 14.0834 13.0156 14.0834 13.4673Z" fill="#FFCC00"/>
<path d="M20.3992 15.3007H18.935L17.1329 8.87657C17.1315 8.86893 17.1286 8.86188 17.1267 8.85438L16.4165 6.32274L16.3943 6.2437L15.558 3.26257C15.5368 3.18715 15.4908 3.12059 15.427 3.07315C15.3633 3.02571 15.2853 3.00001 15.2051 3H12.3252C12.245 3.00001 12.167 3.02571 12.1032 3.07315C12.0395 3.12059 11.9935 3.18715 11.9723 3.26257L10.5265 8.41635L10.4059 8.8466L8.59529 15.3007H7.13093C6.9289 15.3007 6.76508 15.4603 6.76508 15.6573V16.6434C6.76508 16.8404 6.9289 17 7.13093 17H20.3992C20.6013 17 20.7651 16.8404 20.7651 16.6434V15.6573C20.7651 15.4603 20.6013 15.3007 20.3992 15.3007ZM11.038 9.29732H16.4923L17.3336 12.2964H10.1966L11.038 9.29732ZM12.6044 3.71327H14.9258L15.562 5.98113H11.9682L12.6044 3.71327Z" fill="#062158"/>
</svg>
